<?xml version="1.0" encoding="UTF-8" standalone="no"?>
<svg
   xmlns:dc="http://purl.org/dc/elements/1.1/"
   xmlns:cc="http://creativecommons.org/ns#"
   xmlns:rdf="http://www.w3.org/1999/02/22-rdf-syntax-ns#"
   xmlns:svg="http://www.w3.org/2000/svg"
   xmlns="http://www.w3.org/2000/svg"
   viewBox="0 0 595.27557 841.88977"
   id="svg4"
   height="841.88977"
   width="595.27557"
   version="1.1">
  <metadata
     id="metadata10">
    <rdf:RDF>
      <cc:Work
         rdf:about="">
        <dc:format>image/svg+xml</dc:format>
        <dc:type
           rdf:resource="http://purl.org/dc/dcmitype/StillImage" />
      </cc:Work>
    </rdf:RDF>
  </metadata>
  <defs
     id="defs8" />
  <path
     id="path2"
     style="fill:#000000;fill-rule:evenodd"
     d="m 135.3239,280.338 c 31.0354,17.8624 62.045,35.7636 93.0737,53.6393 0.8568,0.3212 1.7232,1.4959 2.6872,0.9444 10.2846,-6.1792 21.2604,-11.2549 32.726,-14.8214 12.2805,-3.8169 25.184,-5.8742 38.0586,-5.2869 9.882,0.3926 19.6666,2.2781 29.1106,5.173 11.6053,3.5733 22.7108,8.6911 33.1089,14.9449 0.3086,0.224 0.7237,0.2791 1.0582,0.0455 25.7306,-14.8444 51.4678,-29.6725 77.2049,-44.5101 5.8006,-3.3818 11.6708,-6.6627 17.438,-10.1028 -7.3269,10.1678 -14.8529,20.1959 -22.2595,30.3086 -15.9746,21.6688 -31.9392,43.3447 -47.8806,65.0398 -18.3853,24.8983 -36.7704,49.7969 -55.1518,74.6985 -12.3164,16.6323 -24.5449,33.3296 -36.9094,49.9201 -28.8481,-38.9605 -57.5988,-77.9923 -86.4078,-116.9821 -18.375,-24.8987 -36.6983,-49.8358 -55.0704,-74.7407 -6.9158,-9.4307 -13.9159,-18.8034 -20.7866,-28.2701 z m 34.7675,112.0295 c 4.0633,-7.406 8.8503,-14.3835 13.9975,-21.0686 3.8586,4.9685 7.3471,10.2358 11.1281,15.2724 -1.8467,2.6255 -4.0046,5.0269 -5.757,7.7208 -10.0898,14.403 -17.366,31.2689 -18.3041,48.9949 -0.2724,6.6629 0.4251,13.4134 2.5283,19.7612 3.1611,9.7101 9.8203,18.32 18.69,23.4574 10.4534,6.3122 23.1133,8.0258 35.1212,6.9255 10.0898,-0.8598 19.9459,-3.6605 29.244,-7.6071 2.5282,-0.9735 4.8517,-2.4077 7.4025,-3.32 11.0863,15.4513 22.1949,30.8893 33.2941,46.331 0.0714,0 0.2174,0 0.292,0 7.9253,-11.0214 15.8472,-22.0492 23.7725,-33.0735 3.2549,-4.4429 6.3476,-9.0156 9.7097,-13.3743 13.835,7.101 29.2667,11.6345 44.9094,11.3458 6.7861,-0.2174 13.5999,-1.324 19.9281,-3.8585 5.7076,-2.2818 11.0668,-5.6114 15.3441,-10.0577 4.3205,-4.3357 7.5758,-9.671 9.683,-15.4024 2.7177,-7.474 3.4742,-15.5678 2.8339,-23.4605 -1.1747,-14.403 -6.5737,-28.1958 -14.0666,-40.4535 -1.4335,-2.502 -3.1723,-4.8129 -4.7585,-7.2177 -1.6293,-2.301 -3.4445,-4.4559 -5.1169,-6.7244 3.7531,-5.0495 7.2672,-10.2812 11.0965,-15.2661 8.3856,10.7811 15.6063,22.5294 20.8294,35.1733 5.5483,13.3806 8.9496,27.8191 8.5879,42.3615 -0.2621,7.2891 -1.4202,14.5878 -3.9322,21.4552 -2.313,6.4386 -5.7541,12.4913 -10.2306,17.6742 -7.8446,9.1746 -18.7487,15.5223 -30.4193,18.4368 -4.0119,1.1489 -8.1698,1.7136 -12.3111,2.1775 -2.1517,0.3083 -4.3358,0.1072 -6.4874,0.3959 -13.1603,0.1881 -26.2389,-2.3398 -38.6914,-6.4937 -13.6109,19.3291 -27.2251,38.6552 -40.8265,57.9943 -13.6012,-19.3391 -27.2188,-38.6652 -40.8297,-57.9976 -16.1358,5.3611 -33.4955,8.1589 -50.4168,5.4229 -11.602,-1.8075 -22.9411,-6.4453 -31.8171,-14.2471 -8.5713,-7.3345 -14.5978,-17.4536 -17.4635,-28.3321 -3.1448,-11.5987 -2.963,-23.8826 -0.7885,-35.6339 2.4633,-13.1049 7.3767,-25.6708 13.825,-37.3119 z m 169.3849,77.921 c 16.6619,-23.0613 33.2487,-46.1813 49.9347,-69.2233 9.1454,11.0017 16.1438,24.2947 17.6868,38.6715 0.3153,1.6031 -0.229,3.2099 0.0133,4.8097 0.1626,-1.1847 -0.007,-2.3886 0.2821,-3.557 -0.0464,3.6445 0.0199,7.3216 -0.6968,10.9141 -1.1482,6.65 -4.3173,12.9846 -9.2152,17.6646 -5.7242,5.4912 -13.5144,8.4379 -21.3387,9.1357 -12.7348,1.1263 -25.463,-2.5316 -36.6662,-8.4153 z M 188.0935,440.0287 c 1.48,-14.474 8.5255,-27.8351 17.6709,-38.9376 16.6944,23.0354 33.2715,46.1587 49.9396,69.217 -6.4064,3.3946 -13.2671,5.9454 -20.3677,7.4188 -7.2144,1.4279 -14.7472,1.7037 -21.9486,0.0584 -4.9978,-1.188 -9.8237,-3.3329 -13.8024,-6.6204 -4.9915,-4.0342 -8.6002,-9.7069 -10.2651,-15.8927 -1.5284,-4.9231 -1.522,-10.1448 -1.2267,-15.2435 z" />
</svg>
